<svg xmlns="http://www.w3.org/2000/svg" width="97" height="26" viewBox="0 0 97 26" fill="none"><path d="M1.716 24V4.63H8.034C10.1313 4.63 11.9513 5.046 13.494 5.878C15.0367 6.71 16.2327 7.854 17.082 9.31C17.9313 10.766 18.356 12.43 18.356 14.302C18.356 16.174 17.9313 17.8467 17.082 19.32C16.2327 20.776 15.0367 21.92 13.494 22.752C11.9513 23.584 10.1313 24 8.034 24H1.716ZM5.746 20.49H8.138C9.40333 20.49 10.4953 20.2387 11.414 19.736C12.3327 19.216 13.0433 18.4967 13.546 17.578C14.066 16.642 14.326 15.55 14.326 14.302C14.326 13.0367 14.066 11.9447 13.546 11.026C13.0433 10.1073 12.3327 9.39667 11.414 8.894C10.4953 8.39133 9.40333 8.14 8.138 8.14H5.746V20.49ZM21.4567 24V4.63H25.4867V24H21.4567ZM28.0115 24V20.75L36.8255 8.14H28.5315V4.63H41.9215V7.88L33.1335 20.49H42.1815V24H28.0115ZM44.7135 24V4.63H48.6135L55.8675 14.25H54.0475L61.0935 4.63H64.9935V24H60.9635V9.076L62.5755 9.44L55.1135 19.06H54.5935L47.3915 9.44L48.7435 9.076V24H44.7135ZM78.6463 24.312C77.1903 24.312 75.8383 24.0607 74.5903 23.558C73.3423 23.0553 72.2503 22.3533 71.3143 21.452C70.3957 20.5333 69.6763 19.4673 69.1563 18.254C68.6363 17.0407 68.3763 15.7233 68.3763 14.302C68.3763 12.8807 68.6277 11.5633 69.1303 10.35C69.6503 9.13667 70.3697 8.07933 71.2883 7.178C72.2243 6.27667 73.3163 5.57467 74.5643 5.072C75.8123 4.56933 77.173 4.318 78.6463 4.318C80.1197 4.318 81.4803 4.56933 82.7283 5.072C83.9763 5.57467 85.0597 6.27667 85.9783 7.178C86.9143 8.07933 87.6337 9.13667 88.1363 10.35C88.6563 11.5633 88.9163 12.8807 88.9163 14.302C88.9163 15.7233 88.6563 17.0407 88.1363 18.254C87.6163 19.4673 86.8883 20.5333 85.9523 21.452C85.0337 22.3533 83.9503 23.0553 82.7023 23.558C81.4543 24.0607 80.1023 24.312 78.6463 24.312ZM78.6463 20.672C79.5303 20.672 80.345 20.516 81.0903 20.204C81.853 19.892 82.5203 19.4587 83.0923 18.904C83.6643 18.332 84.1063 17.656 84.4183 16.876C84.7303 16.096 84.8863 15.238 84.8863 14.302C84.8863 13.366 84.7303 12.5167 84.4183 11.754C84.1063 10.974 83.6643 10.298 83.0923 9.726C82.5203 9.154 81.853 8.72067 81.0903 8.426C80.345 8.114 79.5303 7.958 78.6463 7.958C77.7623 7.958 76.939 8.114 76.1763 8.426C75.431 8.72067 74.7723 9.154 74.2003 9.726C73.6283 10.298 73.1863 10.974 72.8743 11.754C72.5623 12.5167 72.4063 13.366 72.4063 14.302C72.4063 15.238 72.5623 16.096 72.8743 16.876C73.1863 17.656 73.6283 18.332 74.2003 18.904C74.7723 19.4587 75.431 19.892 76.1763 20.204C76.939 20.516 77.7623 20.672 78.6463 20.672Z" fill="#0D0303"></path></svg>